<?xml version="1.0" encoding="utf-8"?>
<!-- Generator: Adobe Illustrator 19.1.0, SVG Export Plug-In . SVG Version: 6.00 Build 0)  -->
<svg version="1.1" xmlns="http://www.w3.org/2000/svg" xmlns:xlink="http://www.w3.org/1999/xlink" x="0px" y="0px"
	 viewBox="0 0 200 200" style="enable-background:new 0 0 200 200;" xml:space="preserve">
<style type="text/css">
	.st0{fill:#F2B451;}
	.st1{fill:#E8D47E;}
	.st2{fill:#F7E7A4;}
	.st3{fill:#6CB1BC;}
	.st4{fill:#ACE8CB;}
	.st5{fill:#E2EFAC;}
	.st6{fill:#8181FC;}
	.st7{fill:#A8B3E2;}
	.st8{fill:#D3D2F9;}
	.st9{fill:#E55C5C;}
	.st10{fill:#E2A6A6;}
	.st11{fill:#F4C9C9;}
	.st12{fill:none;}
	.st13{fill:#FFFFFF;}
	.st14{font-family:'AvenirNextCondensed-Regular';}
	.st15{font-size:60px;}
	.st16{font-size:66px;}
	.st17{font-size:58px;}
	.st18{font-size:68px;}
	.st19{font-size:72px;}
	.st20{font-size:44px;}
	.st21{font-size:56px;}
</style>
<g id="GRAY">
</g>
<g id="all">
	<rect x="593" y="-125.8" class="st0" width="143.6" height="143.6"/>
	<rect x="593" y="53.1" class="st1" width="143.6" height="143.6"/>
	<rect x="593" y="232.8" class="st2" width="143.6" height="143.6"/>
	<rect x="420.7" y="-125.8" class="st3" width="143.6" height="143.6"/>
	<rect x="420.7" y="53.1" class="st4" width="143.6" height="143.6"/>
	<rect x="420.7" y="232.8" class="st5" width="143.6" height="143.6"/>
	<rect x="245.5" y="-125.8" class="st6" width="143.6" height="143.6"/>
	<rect x="245.5" y="53.1" class="st7" width="143.6" height="143.6"/>
	<rect x="245.5" y="232.8" class="st8" width="143.6" height="143.6"/>
	<rect x="764.6" y="-125.8" class="st9" width="143.6" height="143.6"/>
	<rect x="764.6" y="53.1" class="st10" width="143.6" height="143.6"/>
	<rect x="764.6" y="232.8" class="st11" width="143.6" height="143.6"/>
</g>
<g id="RED">
	<g id="red3">
		<rect x="0.2" y="-0.2" class="st11" width="200" height="200"/>
		<rect y="139.6" class="st12" width="200.2" height="88.4"/>
		<text transform="matrix(1 0 0 1 2.1646 184.9497)" class="st13 st14 st15">ANXIOUS</text>
	</g>
	<g id="red2">
		<rect x="0.2" y="-0.2" class="st10" width="200" height="200"/>
		<rect y="139.6" class="st12" width="200.2" height="88.4"/>
		<text transform="matrix(1 0 0 1 8.3736 184.9497)" class="st13 st14 st15">FEARFUL</text>
	</g>
	<g id="red1">
		<rect x="0.2" y="-0.2" class="st9" width="200" height="200"/>
		<rect y="135.6" class="st12" width="200.2" height="88.4"/>
		<text transform="matrix(1 0 0 1 18.9698 185.4858)" class="st13 st14 st16">ANGRY</text>
	</g>
</g>
<g id="YELLOW">
	<g id="yellow3">
		<rect x="0.2" y="-0.2" class="st2" width="200" height="200"/>
		<rect y="139.6" class="st12" width="200.2" height="88.4"/>
		<text transform="matrix(1 0 0 1 5.1671 183.4379)" class="st13 st14 st17">CONTENT</text>
	</g>
	<g id="yellow2">
		<rect x="0.2" y="-0.2" class="st1" width="200" height="200"/>
		<rect y="133.6" class="st12" width="200.2" height="88.4"/>
		<text transform="matrix(1 0 0 1 2.0621 184.9985)" class="st13 st14 st18">EXCITED</text>
	</g>
	<g id="yellow1">
		<rect x="0.2" y="-0.2" class="st0" width="200" height="200"/>
		<rect y="131.6" class="st12" width="200.2" height="88.4"/>
		<text transform="matrix(1 0 0 1 14.4395 186.0219)" class="st13 st14 st19">HAPPY</text>
	</g>
</g>
<g id="GREEN">
	<g id="green3">
		<rect x="0.2" y="-0.2" class="st5" width="200" height="200"/>
		<rect y="130.6" class="st12" width="200.2" height="88.4"/>
		<text transform="matrix(1 0 0 1 10.4078 185.0219)" class="st13 st14 st19">BORED</text>
	</g>
	<g id="green2">
		<rect x="0.2" y="-0.2" class="st4" width="200" height="200"/>
		<rect y="130.6" class="st12" width="200.2" height="88.4"/>
		<text transform="matrix(1 0 0 1 27.7598 185.0219)" class="st13 st14 st19">TIRED</text>
	</g>
	<g id="green1">
		<rect x="0.2" y="-0.2" class="st3" width="200" height="200"/>
		<rect y="140" class="st12" width="200.2" height="60"/>
		<text transform="matrix(1 0 0 1 6.274 185.3627)" class="st13 st14 st15">RELAXED</text>
	</g>
</g>
<g id="BLUE">
	<g id="blue3">
		<rect x="0.2" y="-0.2" class="st8" width="200" height="200"/>
		<rect y="153" class="st12" width="200.2" height="60"/>
		<text transform="matrix(1 0 0 1 2.4258 186.267)" class="st13 st14 st20">FRUSTRATED</text>
	</g>
	<g id="blue2">
		<rect x="0.2" y="-0.2" class="st7" width="200" height="200"/>
		<rect y="144" class="st12" width="200.2" height="60"/>
		<text transform="matrix(1 0 0 1 2.168 186.3393)" class="st13 st14 st21">STRESSED</text>
	</g>
	<g id="blue1">
		<rect x="0.2" y="-0.2" class="st6" width="200" height="200"/>
		<rect y="131.7" class="st12" width="200.2" height="60"/>
		<text transform="matrix(1 0 0 1 48.2799 186.1377)" class="st13 st14 st19">SAD</text>
	</g>
</g>
</svg>
