<?xml version="1.0" encoding="utf-8"?>
<!-- Generator: Adobe Illustrator 19.1.0, SVG Export Plug-In . SVG Version: 6.00 Build 0)  -->
<svg version="1.1" xmlns="http://www.w3.org/2000/svg" xmlns:xlink="http://www.w3.org/1999/xlink" x="0px" y="0px"
	 viewBox="0 0 200 200" style="enable-background:new 0 0 200 200;" xml:space="preserve">
<style type="text/css">
	.st0{fill:#F2F2F2;}
	.st1{fill:none;}
	.st2{fill:#FFFFFF;}
	.st3{font-family:'Avenir-Light';}
	.st4{font-size:140px;}
	.st5{fill:#F2B451;}
	.st6{fill:#E8D47E;}
	.st7{fill:#F7E7A4;}
	.st8{fill:#6CB1BC;}
	.st9{fill:#ACE8CB;}
	.st10{fill:#E2EFAC;}
	.st11{fill:#8181FC;}
	.st12{fill:#A8B3E2;}
	.st13{fill:#D3D2F9;}
	.st14{fill:#E55C5C;}
	.st15{fill:#E2A6A6;}
	.st16{fill:#F4C9C9;}
	.st17{display:none;}
	.st18{display:inline;}
	.st19{opacity:0.8;fill:#FFFFFF;}
	.st20{font-family:'AvenirNextCondensed-Regular';}
	.st21{font-size:40px;}
	.st22{display:inline;fill:#E2A6A6;}
	.st23{display:inline;fill:none;}
	.st24{display:inline;opacity:0.7;fill:#FFFFFF;}
	.st25{display:inline;fill:#E55C5C;}
	.st26{display:inline;opacity:0.6;fill:#FFFFFF;}
	.st27{opacity:0.9;fill:#FFFFFF;}
	.st28{fill:#E8D68B;}
	.st29{opacity:0.7;fill:#FFFFFF;}
	.st30{display:inline;fill:#F2B451;}
	.st31{display:inline;fill:#E2EFAC;}
	.st32{display:inline;opacity:0.9;fill:#FFFFFF;}
	.st33{display:inline;fill:#ACE8CB;}
	.st34{display:inline;opacity:0.8;fill:#FFFFFF;}
	.st35{display:inline;fill:#6CB1BC;}
	.st36{display:inline;fill:#D3D2F9;}
	.st37{display:inline;opacity:0.85;fill:#FFFFFF;}
	.st38{display:inline;fill:#A8B3E2;}
	.st39{display:inline;fill:#8181FC;}
</style>
<g id="GRAY">
	<rect x="0.2" y="-0.2" class="st0" width="200" height="200"/>
	<rect x="37.8" y="36.3" class="st1" width="124.5" height="109"/>
	<text transform="matrix(1 0 0 1 53.3808 142.1781)" class="st2 st3 st4">+</text>
</g>
<g id="all">
	<rect x="593" y="-125.8" class="st5" width="143.6" height="143.6"/>
	<rect x="593" y="53.1" class="st6" width="143.6" height="143.6"/>
	<rect x="593" y="232.8" class="st7" width="143.6" height="143.6"/>
	<rect x="420.7" y="-125.8" class="st8" width="143.6" height="143.6"/>
	<rect x="420.7" y="53.1" class="st9" width="143.6" height="143.6"/>
	<rect x="420.7" y="232.8" class="st10" width="143.6" height="143.6"/>
	<rect x="245.5" y="-125.8" class="st11" width="143.6" height="143.6"/>
	<rect x="245.5" y="53.1" class="st12" width="143.6" height="143.6"/>
	<rect x="245.5" y="232.8" class="st13" width="143.6" height="143.6"/>
	<rect x="764.6" y="-125.8" class="st14" width="143.6" height="143.6"/>
	<rect x="764.6" y="53.1" class="st15" width="143.6" height="143.6"/>
	<rect x="764.6" y="232.8" class="st16" width="143.6" height="143.6"/>
</g>
<g id="RED" class="st17">
	<g id="red3" class="st18">
		<rect x="0.2" y="-0.2" class="st16" width="200" height="200"/>
		<rect y="155.6" class="st1" width="200.2" height="88.4"/>
		<text transform="matrix(1 0 0 1 34.8038 185.8305)" class="st19 st20 st21">ANXIOUS</text>
	</g>
	<g id="red2">
		<rect x="0.2" y="-0.2" class="st22" width="200" height="200"/>
		<rect y="155.6" class="st23" width="200.2" height="88.4"/>
		<text transform="matrix(1 0 0 1 38.9434 185.8305)" class="st24 st20 st21">FEARFUL</text>
	</g>
	<g id="red1">
		<rect x="0.2" y="-0.2" class="st25" width="200" height="200"/>
		<rect y="155.6" class="st23" width="200.2" height="88.4"/>
		<text transform="matrix(1 0 0 1 50.9234 185.8305)" class="st26 st20 st21">ANGRY</text>
	</g>
</g>
<g id="YELLOW" class="st17">
	<g id="yellow3" class="st18">
		<rect x="-21" y="-0.2" class="st7" width="221.2" height="213.1"/>
		<rect y="154.6" class="st1" width="200.2" height="88.4"/>
		<text transform="matrix(1 0 0 1 34.6236 184.8305)" class="st27 st20 st21">CONTENT</text>
	</g>
	<g id="yellow2" class="st18">
		<rect x="0.2" y="-0.2" class="st28" width="200" height="200"/>
		<rect y="154.6" class="st1" width="200.2" height="88.4"/>
		<text transform="matrix(1 0 0 1 42.4234 184.8305)" class="st29 st20 st21">EXCITED</text>
	</g>
	<g id="yellow1">
		<rect x="0.2" y="-0.2" class="st30" width="200" height="200"/>
		<rect y="155.6" class="st23" width="200.2" height="88.4"/>
		<text transform="matrix(1 0 0 1 52.503 185.8305)" class="st26 st20 st21">HAPPY</text>
	</g>
</g>
<g id="GREEN" class="st17">
	<g id="green3">
		<rect x="0.2" y="-0.2" class="st31" width="200" height="200"/>
		<rect y="155.6" class="st23" width="200.2" height="88.4"/>
		<text transform="matrix(1 0 0 1 50.2633 185.8305)" class="st32 st20 st21">BORED</text>
	</g>
	<g id="green2">
		<rect x="0.2" y="-0.2" class="st33" width="200" height="200"/>
		<rect y="154.6" class="st23" width="200.2" height="88.4"/>
		<text transform="matrix(1 0 0 1 59.9034 184.8305)" class="st34 st20 st21">TIRED</text>
	</g>
	<g id="green1">
		<rect x="0.2" y="-0.2" class="st35" width="200" height="200"/>
		<rect y="155" class="st23" width="200.2" height="60"/>
		<text transform="matrix(1 0 0 1 37.5435 185.2436)" class="st26 st20 st21">RELAXED</text>
	</g>
</g>
<g id="BLUE" class="st17">
	<g id="blue3">
		<rect x="0.2" y="-0.2" class="st36" width="200" height="200"/>
		<rect y="153" class="st23" width="200.2" height="60"/>
		<text transform="matrix(1 0 0 1 11.3038 183.2436)" class="st37 st20 st21">FRUSTRATED</text>
	</g>
	<g id="blue2">
		<rect x="0.2" y="-0.2" class="st38" width="200" height="200"/>
		<rect y="155" class="st23" width="200.2" height="60"/>
		<text transform="matrix(1 0 0 1 30.1436 185.2436)" class="st24 st20 st21">STRESSED</text>
	</g>
	<g id="blue1">
		<rect x="0.2" y="-0.2" class="st39" width="200" height="200"/>
		<rect y="154" class="st23" width="200.2" height="60"/>
		<text transform="matrix(1 0 0 1 71.3033 184.2436)" class="st26 st20 st21">SAD</text>
	</g>
</g>
</svg>
