<?xml version="1.0" encoding="utf-8"?>
<!-- Generator: Adobe Illustrator 19.1.0, SVG Export Plug-In . SVG Version: 6.00 Build 0)  -->
<svg version="1.1" xmlns="http://www.w3.org/2000/svg" xmlns:xlink="http://www.w3.org/1999/xlink" x="0px" y="0px"
	 viewBox="0 0 200 200" style="enable-background:new 0 0 200 200;" xml:space="preserve">
<style type="text/css">
	.st0{fill:#F2B451;}
	.st1{fill:#E8D47E;}
	.st2{fill:#F7E7A4;}
	.st3{fill:#6CB1BC;}
	.st4{fill:#ACE8CB;}
	.st5{fill:#E2EFAC;}
	.st6{fill:#8181FC;}
	.st7{fill:#A8B3E2;}
	.st8{fill:#D3D2F9;}
	.st9{fill:#E55C5C;}
	.st10{fill:#E2A6A6;}
	.st11{fill:#F4C9C9;}
	.st12{fill:none;}
	.st13{fill:#FFFFFF;}
	.st14{font-family:'AvenirNextCondensed-Regular';}
	.st15{font-size:40px;}
	.st16{display:none;}
	.st17{display:inline;fill:#E2A6A6;}
	.st18{display:inline;fill:none;}
	.st19{display:inline;opacity:0.7;fill:#FFFFFF;}
	.st20{display:inline;fill:#E55C5C;}
	.st21{display:inline;opacity:0.6;fill:#FFFFFF;}
	.st22{display:inline;fill:#F7E7A4;}
	.st23{display:inline;fill:#FFFFFF;}
	.st24{display:inline;fill:#E8D47E;}
	.st25{display:inline;fill:#F2B451;}
	.st26{display:inline;fill:#E2EFAC;}
	.st27{display:inline;fill:#ACE8CB;}
	.st28{display:inline;opacity:0.8;fill:#FFFFFF;}
	.st29{opacity:0.6;fill:#FFFFFF;}
	.st30{display:inline;fill:#D3D2F9;}
	.st31{display:inline;fill:#A8B3E2;}
	.st32{display:inline;fill:#8181FC;}
</style>
<g id="GRAY">
</g>
<g id="all">
	<rect x="593" y="-125.8" class="st0" width="143.6" height="143.6"/>
	<rect x="593" y="53.1" class="st1" width="143.6" height="143.6"/>
	<rect x="593" y="232.8" class="st2" width="143.6" height="143.6"/>
	<rect x="420.7" y="-125.8" class="st3" width="143.6" height="143.6"/>
	<rect x="420.7" y="53.1" class="st4" width="143.6" height="143.6"/>
	<rect x="420.7" y="232.8" class="st5" width="143.6" height="143.6"/>
	<rect x="245.5" y="-125.8" class="st6" width="143.6" height="143.6"/>
	<rect x="245.5" y="53.1" class="st7" width="143.6" height="143.6"/>
	<rect x="245.5" y="232.8" class="st8" width="143.6" height="143.6"/>
	<rect x="764.6" y="-125.8" class="st9" width="143.6" height="143.6"/>
	<rect x="764.6" y="53.1" class="st10" width="143.6" height="143.6"/>
	<rect x="764.6" y="232.8" class="st11" width="143.6" height="143.6"/>
</g>
<g id="RED">
	<g id="red3">
		<rect x="0.2" y="-0.2" class="st11" width="200" height="200"/>
		<rect y="155.6" class="st12" width="200.2" height="88.4"/>
		<text transform="matrix(1 0 0 1 34.8038 185.8305)" class="st13 st14 st15">ANXIOUS</text>
	</g>
	<g id="red2" class="st16">
		<rect x="0.2" y="-0.2" class="st17" width="200" height="200"/>
		<rect y="155.6" class="st18" width="200.2" height="88.4"/>
		<text transform="matrix(1 0 0 1 38.9434 185.8305)" class="st19 st14 st15">FEARFUL</text>
	</g>
	<g id="red1" class="st16">
		<rect x="0.2" y="-0.2" class="st20" width="200" height="200"/>
		<rect y="155.6" class="st18" width="200.2" height="88.4"/>
		<text transform="matrix(1 0 0 1 50.9234 185.8305)" class="st21 st14 st15">ANGRY</text>
	</g>
</g>
<g id="YELLOW">
	<g id="yellow3" class="st16">
		<rect x="0.2" y="-0.2" class="st22" width="200" height="200"/>
		<rect y="154.6" class="st18" width="200.2" height="88.4"/>
		<text transform="matrix(1 0 0 1 34.6236 184.8305)" class="st23 st14 st15">CONTENT</text>
	</g>
	<g id="yellow2" class="st16">
		<rect x="0.2" y="-0.2" class="st24" width="200" height="200"/>
		<rect y="154.6" class="st18" width="200.2" height="88.4"/>
		<text transform="matrix(1 0 0 1 42.4234 184.8305)" class="st19 st14 st15">EXCITED</text>
	</g>
	<g id="yellow1" class="st16">
		<rect x="0.2" y="-0.2" class="st25" width="200" height="200"/>
		<rect y="155.6" class="st18" width="200.2" height="88.4"/>
		<text transform="matrix(1 0 0 1 52.503 185.8305)" class="st21 st14 st15">HAPPY</text>
	</g>
</g>
<g id="GREEN">
	<g id="green3" class="st16">
		<rect x="0.2" y="-0.2" class="st26" width="200" height="200"/>
		<rect y="155.6" class="st18" width="200.2" height="88.4"/>
		<text transform="matrix(1 0 0 1 50.2633 185.8305)" class="st23 st14 st15">BORED</text>
	</g>
	<g id="green2" class="st16">
		<rect x="0.2" y="-0.2" class="st27" width="200" height="200"/>
		<rect y="154.6" class="st18" width="200.2" height="88.4"/>
		<text transform="matrix(1 0 0 1 59.9034 184.8305)" class="st28 st14 st15">TIRED</text>
	</g>
	<g id="green1">
		<rect x="0.2" y="-0.2" class="st3" width="200" height="200"/>
		<rect y="155" class="st12" width="200.2" height="60"/>
		<text transform="matrix(1 0 0 1 37.5435 185.2436)" class="st29 st14 st15">RELAXED</text>
	</g>
</g>
<g id="BLUE">
	<g id="blue3" class="st16">
		<rect x="0.2" y="-0.2" class="st30" width="200" height="200"/>
		<rect y="153" class="st18" width="200.2" height="60"/>
		<text transform="matrix(1 0 0 1 11.3038 183.2436)" class="st23 st14 st15">FRUSTRATED</text>
	</g>
	<g id="blue2" class="st16">
		<rect x="0.2" y="-0.2" class="st31" width="200" height="200"/>
		<rect y="155" class="st18" width="200.2" height="60"/>
		<text transform="matrix(1 0 0 1 30.1436 185.2436)" class="st19 st14 st15">STRESSED</text>
	</g>
	<g id="blue1" class="st16">
		<rect x="0.2" y="-0.2" class="st32" width="200" height="200"/>
		<rect y="154" class="st18" width="200.2" height="60"/>
		<text transform="matrix(1 0 0 1 71.3033 184.2436)" class="st21 st14 st15">SAD</text>
	</g>
</g>
</svg>
