<?xml version="1.0" encoding="utf-8"?>
<!-- Generator: Adobe Illustrator 19.1.0, SVG Export Plug-In . SVG Version: 6.00 Build 0)  -->
<svg version="1.1" xmlns="http://www.w3.org/2000/svg" xmlns:xlink="http://www.w3.org/1999/xlink" x="0px" y="0px"
	 viewBox="0 0 200 200" style="enable-background:new 0 0 200 200;" xml:space="preserve">
<style type="text/css">
	.st0{display:none;}
	.st1{display:inline;fill:#F2F2F2;}
	.st2{display:inline;fill:none;}
	.st3{display:inline;fill:#FFFFFF;}
	.st4{font-family:'Avenir-Light';}
	.st5{font-size:140px;}
	.st6{fill:#F2B451;}
	.st7{fill:#E8D47E;}
	.st8{fill:#F7E7A4;}
	.st9{fill:#6CB1BC;}
	.st10{fill:#ACE8CB;}
	.st11{fill:#E2EFAC;}
	.st12{fill:#8181FC;}
	.st13{fill:#A8B3E2;}
	.st14{fill:#D3D2F9;}
	.st15{fill:#E55C5C;}
	.st16{fill:#E2A6A6;}
	.st17{fill:#F4C9C9;}
	.st18{display:inline;}
	.st19{fill:none;}
	.st20{opacity:0.8;fill:#FFFFFF;}
	.st21{font-family:'AvenirNextCondensed-Regular';}
	.st22{font-size:40px;}
	.st23{display:inline;fill:#E2A6A6;}
	.st24{display:inline;opacity:0.7;fill:#FFFFFF;}
	.st25{display:inline;fill:#E55C5C;}
	.st26{display:inline;opacity:0.6;fill:#FFFFFF;}
	.st27{display:inline;fill:#F7E7A4;}
	.st28{display:inline;opacity:0.9;fill:#FFFFFF;}
	.st29{fill:#E8D68B;}
	.st30{opacity:0.7;fill:#FFFFFF;}
	.st31{display:inline;fill:#F2B451;}
	.st32{display:inline;fill:#E2EFAC;}
	.st33{display:inline;fill:#ACE8CB;}
	.st34{display:inline;opacity:0.8;fill:#FFFFFF;}
	.st35{display:inline;fill:#6CB1BC;}
	.st36{display:inline;fill:#D3D2F9;}
	.st37{display:inline;opacity:0.85;fill:#FFFFFF;}
	.st38{display:inline;fill:#A8B3E2;}
	.st39{display:inline;fill:#8181FC;}
</style>
<g id="GRAY" class="st0">
	<rect x="0.2" y="-0.2" class="st1" width="200" height="200"/>
	<rect x="37.8" y="36.3" class="st2" width="124.5" height="109"/>
	<text transform="matrix(1 0 0 1 53.3808 142.1781)" class="st3 st4 st5">+</text>
</g>
<g id="all">
	<rect x="593" y="-125.8" class="st6" width="143.6" height="143.6"/>
	<rect x="593" y="53.1" class="st7" width="143.6" height="143.6"/>
	<rect x="593" y="232.8" class="st8" width="143.6" height="143.6"/>
	<rect x="420.7" y="-125.8" class="st9" width="143.6" height="143.6"/>
	<rect x="420.7" y="53.1" class="st10" width="143.6" height="143.6"/>
	<rect x="420.7" y="232.8" class="st11" width="143.6" height="143.6"/>
	<rect x="245.5" y="-125.8" class="st12" width="143.6" height="143.6"/>
	<rect x="245.5" y="53.1" class="st13" width="143.6" height="143.6"/>
	<rect x="245.5" y="232.8" class="st14" width="143.6" height="143.6"/>
	<rect x="764.6" y="-125.8" class="st15" width="143.6" height="143.6"/>
	<rect x="764.6" y="53.1" class="st16" width="143.6" height="143.6"/>
	<rect x="764.6" y="232.8" class="st17" width="143.6" height="143.6"/>
</g>
<g id="RED" class="st0">
	<g id="red3" class="st18">
		<rect x="0.2" y="-0.2" class="st17" width="200" height="200"/>
		<rect y="155.6" class="st19" width="200.2" height="88.4"/>
		<text transform="matrix(1 0 0 1 34.8038 185.8305)" class="st20 st21 st22">ANXIOUS</text>
	</g>
	<g id="red2">
		<rect x="0.2" y="-0.2" class="st23" width="200" height="200"/>
		<rect y="155.6" class="st2" width="200.2" height="88.4"/>
		<text transform="matrix(1 0 0 1 38.9434 185.8305)" class="st24 st21 st22">FEARFUL</text>
	</g>
	<g id="red1">
		<rect x="0.2" y="-0.2" class="st25" width="200" height="200"/>
		<rect y="155.6" class="st2" width="200.2" height="88.4"/>
		<text transform="matrix(1 0 0 1 50.9234 185.8305)" class="st26 st21 st22">ANGRY</text>
	</g>
</g>
<g id="YELLOW">
	<g id="yellow3" class="st0">
		<rect x="-21" y="-0.2" class="st27" width="221.2" height="213.1"/>
		<rect y="154.6" class="st2" width="200.2" height="88.4"/>
		<text transform="matrix(1 0 0 1 34.6236 184.8305)" class="st28 st21 st22">CONTENT</text>
	</g>
	<g id="yellow2">
		<rect x="0.2" y="-0.2" class="st29" width="200" height="200"/>
		<rect y="154.6" class="st19" width="200.2" height="88.4"/>
		<text transform="matrix(1 0 0 1 42.4234 184.8305)" class="st30 st21 st22">EXCITED</text>
	</g>
	<g id="yellow1" class="st0">
		<rect x="0.2" y="-0.2" class="st31" width="200" height="200"/>
		<rect y="155.6" class="st2" width="200.2" height="88.4"/>
		<text transform="matrix(1 0 0 1 52.503 185.8305)" class="st26 st21 st22">HAPPY</text>
	</g>
</g>
<g id="GREEN" class="st0">
	<g id="green3">
		<rect x="0.2" y="-0.2" class="st32" width="200" height="200"/>
		<rect y="155.6" class="st2" width="200.2" height="88.4"/>
		<text transform="matrix(1 0 0 1 50.2633 185.8305)" class="st28 st21 st22">BORED</text>
	</g>
	<g id="green2">
		<rect x="0.2" y="-0.2" class="st33" width="200" height="200"/>
		<rect y="154.6" class="st2" width="200.2" height="88.4"/>
		<text transform="matrix(1 0 0 1 59.9034 184.8305)" class="st34 st21 st22">TIRED</text>
	</g>
	<g id="green1">
		<rect x="0.2" y="-0.2" class="st35" width="200" height="200"/>
		<rect y="155" class="st2" width="200.2" height="60"/>
		<text transform="matrix(1 0 0 1 37.5435 185.2436)" class="st26 st21 st22">RELAXED</text>
	</g>
</g>
<g id="BLUE" class="st0">
	<g id="blue3">
		<rect x="0.2" y="-0.2" class="st36" width="200" height="200"/>
		<rect y="153" class="st2" width="200.2" height="60"/>
		<text transform="matrix(1 0 0 1 11.3038 183.2436)" class="st37 st21 st22">FRUSTRATED</text>
	</g>
	<g id="blue2">
		<rect x="0.2" y="-0.2" class="st38" width="200" height="200"/>
		<rect y="155" class="st2" width="200.2" height="60"/>
		<text transform="matrix(1 0 0 1 30.1436 185.2436)" class="st24 st21 st22">STRESSED</text>
	</g>
	<g id="blue1">
		<rect x="0.2" y="-0.2" class="st39" width="200" height="200"/>
		<rect y="154" class="st2" width="200.2" height="60"/>
		<text transform="matrix(1 0 0 1 71.3033 184.2436)" class="st26 st21 st22">SAD</text>
	</g>
</g>
</svg>
